<?xml version="1.0" encoding="UTF-8"?> <svg xmlns="http://www.w3.org/2000/svg" width="1500" height="1500" viewBox="0 0 1500 1500" fill="none"> <g clip-path="url(#clip0_63_4509)"> <path d="M783.904 826.347C769.214 826.348 751.702 819.377 731.21 811.222C679.178 790.515 607.919 762.156 509.946 813.076L508.54 810.371C552.452 787.549 594.886 778.378 638.268 782.329C675.346 785.708 706.946 798.284 732.337 808.389C761.19 819.872 783.98 828.942 800.323 819.056C817.357 808.756 827.702 777.907 833.867 719.029C838.397 675.762 854.907 629.958 880.356 590.054C910.039 543.511 951.823 504.827 1001.19 478.184L1002.64 480.868C953.726 507.264 912.33 545.588 882.926 591.694C857.727 631.207 841.381 676.541 836.899 719.347C830.625 779.266 819.831 810.823 801.9 821.665C796.457 824.958 790.46 826.346 783.904 826.347Z" fill="#040404"></path> <path d="M963.274 563.52C963.126 562.966 959.682 549.776 962.58 532.594C964.739 519.796 970.916 502.82 987.383 488.277C966.762 495.857 948.889 493.223 936.603 489.043C920.107 483.429 910.138 474.131 909.722 473.737L911.814 471.519C911.912 471.612 921.8 480.812 937.704 486.196C958.951 493.389 980.291 490.733 1001.14 478.3L1002.7 480.919C952.936 510.6 966.081 562.214 966.22 562.731L963.274 563.52ZM893.349 1035.93C893.228 1035.33 880.607 975.233 824.941 920.223C792.257 887.925 751.336 863.662 703.314 848.108C643.214 828.642 571.754 822.832 490.919 830.846L490.618 827.811C571.929 819.754 643.847 825.619 704.375 845.248C752.865 860.972 794.192 885.51 827.211 918.182C883.465 973.844 896.215 1034.72 896.337 1035.33L893.349 1035.93ZM486.298 792.141L484.35 789.795C544.14 740.118 574.992 670.953 590.346 621.679C606.993 568.255 609.51 526.102 609.533 525.683L612.577 525.853C612.554 526.277 610.015 568.806 593.257 622.585C577.78 672.253 546.661 741.987 486.298 792.141Z" fill="#040404"></path> <path d="M503.651 880.022L502.547 877.18C551.883 858.018 592.123 836.838 625.564 812.432C655.388 790.665 679.133 766.768 698.155 739.374C733.571 688.371 746.496 634.388 760.18 577.234C776.117 510.674 792.596 441.849 847.631 377.707L849.945 379.693C795.388 443.276 778.997 511.737 763.145 577.944C749.392 635.384 736.402 689.638 700.659 741.113C681.44 768.79 657.464 792.925 627.362 814.894C593.705 839.46 553.238 860.763 503.651 880.022Z" fill="#040404"></path> <path d="M697.978 1072.99C693.491 1072.99 688.985 1072.67 684.499 1072.01C670.182 1069.9 661.469 1065.16 658.602 1057.93C655.909 1051.13 658.511 1042.68 666.336 1032.8C683.572 1011.04 723.887 985.334 773.152 963.7C760.019 937.684 731.719 913.158 690.729 892.385C636.529 864.918 561.012 843.915 466.275 829.961L466.719 826.944C561.781 840.946 637.613 862.048 692.107 889.665C733.755 910.771 762.544 935.814 775.95 962.479C790.868 956.026 806.033 950.16 821.41 944.894C907.9 915.265 996.375 904.962 1070.54 915.886L1070.09 918.903C996.403 908.048 908.437 918.303 822.399 947.779C807.137 953.006 792.083 958.824 777.272 965.221C777.933 966.653 778.555 968.102 779.136 969.568C788.95 994.329 785.407 1019.26 769.161 1039.78C752.585 1060.7 725.664 1072.99 697.978 1072.99ZM774.475 966.439C725.615 987.866 685.705 1013.25 668.725 1034.69C661.726 1043.53 659.205 1051.18 661.436 1056.8C663.872 1062.95 671.781 1067.05 684.942 1068.99C716.056 1073.57 748.173 1061.36 766.769 1037.88C782.311 1018.26 785.695 994.398 776.3 970.692C775.732 969.258 775.123 967.839 774.475 966.439ZM686.75 768.399C607.786 768.399 541.61 759.732 490.375 749.21L490.988 746.224C600.124 768.636 777.286 782.605 1001.52 721.875L1002.31 724.818C882.734 757.205 776.485 768.399 686.75 768.399Z" fill="#040404"></path> <path d="M1006.7 638.05L1240.1 573.83L1280.1 719.219L1046.7 783.438L1006.7 638.05Z" fill="#FFFDFA"></path> <path d="M1045.6 785.282L1004.79 636.96L1241.12 571.932L1281.93 720.254L1045.6 785.282ZM1008.54 639.09L1047.73 781.533L1278.18 718.122L1238.99 575.679L1008.54 639.09Z" fill="#040404"></path> <path d="M1150.57 704.788L1006.04 639.414L1007.29 636.636L1149.51 700.965L1238.8 572.933L1241.3 574.677L1150.57 704.788Z" fill="#040404"></path> <path d="M1168.8 676.451L1169.93 673.62L1280.6 717.68L1279.47 720.511L1168.8 676.451ZM1045.44 782.512L1118.01 688.056L1120.43 689.913L1047.86 784.369L1045.44 782.512Z" fill="#040404"></path> <path d="M569.135 505.805L575.505 363.106L664.397 367.075L658.026 509.774L569.135 505.805Z" fill="#FFFDFA"></path> <path d="M659.499 511.377L567.561 507.27L574.072 361.525L666.01 365.631L659.499 511.377ZM570.744 504.359L656.589 508.195L662.827 368.541L576.982 364.706L570.744 504.359Z" fill="#040404"></path> <path d="M570.28 506.839L568.024 504.789L629.645 437.024L574.312 364.036L576.742 362.194L633.605 437.202L570.28 506.839Z" fill="#040404"></path> <path d="M618.368 420.218L663.212 366.096L665.56 368.041L620.715 422.164L618.368 420.218ZM616.925 452.72L619.436 450.99L659.29 508.888L656.779 510.617L616.925 452.72Z" fill="#040404"></path> <path d="M941.879 1042.46L980.475 1179.99L894.805 1204.04L856.209 1066.51L941.879 1042.46Z" fill="#FFFDFA"></path> <path d="M893.788 1205.95L854.363 1065.49L942.968 1040.62L982.393 1181.08L893.788 1205.95ZM858.123 1067.6L895.899 1202.19L978.633 1178.97L940.857 1044.38L858.123 1067.6Z" fill="#040404"></path> <path d="M979.647 1181.28L902.168 1127.83L940.521 1041.88L943.305 1043.12L905.984 1126.76L981.379 1178.77L979.647 1181.28Z" fill="#040404"></path> <path d="M893.47 1203.51L919.133 1138.06L921.972 1139.18L896.309 1204.62L893.47 1203.51ZM855.316 1067.69L857.16 1065.26L913.131 1107.78L911.287 1110.21L855.316 1067.69Z" fill="#040404"></path> <path d="M521.469 943.464C567.262 932.761 590.604 865.126 573.606 792.396C556.607 719.666 505.705 669.383 459.912 680.086C414.119 690.789 390.777 758.425 407.775 831.154C424.774 903.884 475.677 954.167 521.469 943.464Z" fill="#040404"></path> <mask id="mask0_63_4509" style="mask-type:luminance" maskUnits="userSpaceOnUse" x="402" y="678" width="178" height="267"> <path d="M521.469 943.464C567.262 932.761 590.604 865.126 573.606 792.396C556.607 719.666 505.705 669.383 459.912 680.086C414.119 690.789 390.777 758.424 407.775 831.154C424.774 903.884 475.677 954.167 521.469 943.464Z" fill="white"></path> </mask> <g mask="url(#mask0_63_4509)"> <path d="M686.899 768.476C631.013 768.476 576.422 764.116 524.074 755.451C411.986 736.897 348.217 704.557 347.586 704.232L348.981 701.521C349.608 701.843 413.057 734.003 524.724 752.467C590.306 763.311 659.439 767.376 730.21 764.56C818.674 761.035 909.955 746.673 1001.52 721.874L1002.32 724.817C910.495 749.685 818.951 764.083 730.225 767.61C715.711 768.188 701.257 768.476 686.899 768.476Z" fill="#FFFDFA"></path> </g> <mask id="mask1_63_4509" style="mask-type:luminance" maskUnits="userSpaceOnUse" x="402" y="678" width="178" height="267"> <path d="M521.469 943.464C567.262 932.761 590.604 865.126 573.606 792.396C556.607 719.666 505.705 669.383 459.912 680.086C414.119 690.789 390.777 758.424 407.775 831.154C424.774 903.884 475.677 954.167 521.469 943.464Z" fill="white"></path> </mask> <g mask="url(#mask1_63_4509)"> <path d="M371.907 848.925L371.19 845.962C422.134 833.641 466.356 809.155 502.628 773.188C531.667 744.392 555.716 708.207 574.106 665.635C605.444 593.093 609.494 526.348 609.532 525.683L612.576 525.853C612.539 526.524 608.456 593.81 576.905 666.845C558.36 709.775 534.091 746.282 504.775 775.353C468.103 811.718 423.399 836.472 371.907 848.925Z" fill="#FFFDFA"></path> </g> <mask id="mask2_63_4509" style="mask-type:luminance" maskUnits="userSpaceOnUse" x="402" y="678" width="178" height="267"> <path d="M521.469 943.464C567.262 932.761 590.604 865.126 573.606 792.396C556.607 719.666 505.705 669.383 459.912 680.086C414.119 690.789 390.777 758.424 407.775 831.154C424.774 903.884 475.677 954.167 521.469 943.464Z" fill="white"></path> </mask> <g mask="url(#mask2_63_4509)"> <path d="M388.494 908.391L386.299 906.274C424.675 866.477 462.746 835.862 499.454 815.28C531.217 797.47 563.068 786.578 594.123 782.905C651.303 776.135 696.235 794.022 732.337 808.389C761.189 819.87 783.979 828.941 800.324 819.056C817.358 808.756 827.703 777.907 833.868 719.029C838.398 675.762 854.908 629.958 880.357 590.054C910.04 543.511 951.824 504.827 1001.19 478.184L1002.64 480.868C953.727 507.264 912.331 545.588 882.927 591.694C857.728 631.207 841.382 676.541 836.9 719.347C830.626 779.266 819.832 810.823 801.901 821.665C784.259 832.333 760.848 823.018 731.209 811.222C695.427 796.983 650.894 779.26 594.48 785.932C563.826 789.558 532.355 800.327 500.944 817.939C464.497 838.376 426.663 868.808 388.494 908.391Z" fill="#FFFDFA"></path> </g> <mask id="mask3_63_4509" style="mask-type:luminance" maskUnits="userSpaceOnUse" x="402" y="678" width="178" height="267"> <path d="M521.469 943.464C567.262 932.761 590.604 865.126 573.606 792.396C556.607 719.666 505.705 669.383 459.912 680.086C414.119 690.789 390.777 758.424 407.775 831.154C424.774 903.884 475.677 954.167 521.469 943.464Z" fill="white"></path> </mask> <g mask="url(#mask3_63_4509)"> <path d="M697.851 1072.98C693.405 1072.98 688.941 1072.66 684.498 1072C670.181 1069.9 661.468 1065.16 658.602 1057.93C655.909 1051.13 658.511 1042.68 666.335 1032.8C683.619 1010.98 724.115 985.189 773.568 963.517C760.547 937.111 732.001 912.296 690.502 891.414C636.303 864.141 560.864 843.465 466.281 829.961C344.121 812.513 220.307 854.958 219.071 855.39L218.068 852.511C219.311 852.077 343.803 809.389 466.712 826.943C561.623 840.494 637.377 861.269 691.873 888.69C734.029 909.904 763.068 935.239 776.367 962.299C791.151 955.917 806.177 950.111 821.41 944.894C907.9 915.265 996.375 904.964 1070.54 915.885L1070.09 918.902C996.402 908.049 908.437 918.303 822.399 947.779C807.271 952.96 792.348 958.722 777.663 965.052C778.166 966.168 778.645 967.295 779.099 968.432C789.105 993.462 785.565 1018.71 769.131 1039.52C752.489 1060.6 725.525 1072.98 697.851 1072.98ZM774.866 966.267C725.829 987.73 685.75 1013.2 668.725 1034.69C661.726 1043.53 659.205 1051.18 661.436 1056.8C663.872 1062.95 671.781 1067.05 684.942 1068.99C715.98 1073.55 748.086 1061.25 766.736 1037.63C782.465 1017.71 785.85 993.539 776.266 969.565C775.824 968.456 775.357 967.356 774.866 966.267Z" fill="#FFFDFA"></path> </g> <mask id="mask4_63_4509" style="mask-type:luminance" maskUnits="userSpaceOnUse" x="402" y="678" width="178" height="267"> <path d="M521.469 943.464C567.262 932.761 590.604 865.126 573.606 792.396C556.607 719.666 505.705 669.383 459.912 680.086C414.119 690.789 390.777 758.424 407.775 831.154C424.774 903.884 475.677 954.167 521.469 943.464Z" fill="white"></path> </mask> <g mask="url(#mask4_63_4509)"> <path d="M378.441 919.104L377.697 916.147C454.948 896.695 517.368 874.249 568.522 847.525C614.156 823.685 649.795 796.912 677.475 765.675C728.979 707.554 744.136 644.253 760.182 577.236C776.119 510.676 792.598 441.85 847.633 377.708L849.947 379.694C795.391 443.277 778.999 511.738 763.147 577.946C747.01 645.344 731.767 709.006 679.757 767.698C651.826 799.217 615.903 826.213 569.933 850.227C518.565 877.063 455.928 899.592 378.441 919.104Z" fill="#FFFDFA"></path> </g> <mask id="mask5_63_4509" style="mask-type:luminance" maskUnits="userSpaceOnUse" x="402" y="678" width="178" height="267"> <path d="M521.469 943.464C567.262 932.761 590.604 865.126 573.606 792.396C556.607 719.666 505.705 669.383 459.912 680.086C414.119 690.789 390.777 758.424 407.775 831.154C424.774 903.884 475.677 954.167 521.469 943.464Z" fill="white"></path> </mask> <g mask="url(#mask5_63_4509)"> <path d="M893.349 1035.93C893.303 1035.7 888.549 1012.7 871.976 982.456C856.692 954.562 827.936 914.614 777.741 882.711C733.584 854.645 679.883 837.043 618.128 830.396C543.214 822.33 455.65 830.358 357.863 854.251L357.139 851.289C455.296 827.305 543.236 819.259 618.513 827.37C680.744 834.077 734.889 851.845 779.444 880.181C830.205 912.463 859.276 952.893 874.724 981.124C891.479 1011.74 896.292 1035.1 896.339 1035.33L893.349 1035.93Z" fill="#FFFDFA"></path> </g> <path d="M575.552 928.3L588.258 947.544L611.055 951.016L591.811 963.721L588.339 986.518L575.627 967.284L552.836 963.802L572.08 951.097L575.552 928.3ZM926.792 820.382L939.498 839.626L962.295 843.098L943.051 855.804L939.579 878.601L926.867 859.366L904.076 855.885L923.32 843.179L926.792 820.382ZM674.855 557.459L687.56 576.703L710.358 580.175L691.114 592.881L687.641 615.678L674.93 596.443L652.139 592.962L671.383 580.256L674.855 557.459ZM933.484 593.964L946.19 613.208L968.987 616.68L949.743 629.385L946.271 652.182L933.559 632.948L910.768 629.466L930.012 616.761L933.484 593.964ZM376.279 644.659L388.984 663.902L411.781 667.375L392.538 680.08L389.065 702.877L376.354 683.643L353.563 680.161L372.807 667.456L376.279 644.659ZM1055.57 972.972L1083.79 920.598L1079.26 861.28L1172.87 931.287C1175.66 933.376 1176.95 936.793 1176.22 940.205C1175.5 943.616 1172.94 946.217 1169.54 946.992L1055.57 972.972ZM1082.81 867.743L1086.89 921.259L1061.44 968.508L1168.86 944.02C1171.12 943.504 1172.76 941.842 1173.24 939.573C1173.72 937.304 1172.9 935.119 1171.04 933.729L1082.81 867.743ZM891.343 418.472L857.356 369.646L802.386 346.897L907.122 294.99C910.246 293.441 913.876 293.838 916.593 296.024C919.31 298.21 920.473 301.67 919.629 305.053L891.343 418.472ZM809.756 346.647L859.348 367.169L890.009 411.218L916.671 304.315C917.232 302.065 916.488 299.853 914.681 298.399C912.873 296.946 910.555 296.693 908.475 297.722L809.756 346.647Z" fill="#040404"></path> </g> <defs> <clipPath id="clip0_63_4509"> <rect width="1500" height="1500" fill="white"></rect> </clipPath> </defs> </svg> 